<svg width="25" height="25" viewBox="0 0 25 25" fill="none" xmlns="http://www.w3.org/2000/svg">
<path d="M8.49353 13.5C7.94125 13.5 7.49353 13.9477 7.49353 14.5C7.49353 15.0523 7.94125 15.5 8.49353 15.5V13.5ZM16.4935 15.5C17.0458 15.5 17.4935 15.0523 17.4935 14.5C17.4935 13.9477 17.0458 13.5 16.4935 13.5V15.5ZM8.49353 9.5C7.94125 9.5 7.49353 9.94772 7.49353 10.5C7.49353 11.0523 7.94125 11.5 8.49353 11.5V9.5ZM16.4935 11.5C17.0458 11.5 17.4935 11.0523 17.4935 10.5C17.4935 9.94772 17.0458 9.5 16.4935 9.5V11.5ZM8.49353 5.5C7.94125 5.5 7.49353 5.94772 7.49353 6.5C7.49353 7.05228 7.94125 7.5 8.49353 7.5V5.5ZM16.4935 7.5C17.0458 7.5 17.4935 7.05228 17.4935 6.5C17.4935 5.94772 17.0458 5.5 16.4935 5.5V7.5ZM8.49353 17.5C7.94125 17.5 7.49353 17.9477 7.49353 18.5C7.49353 19.0523 7.94125 19.5 8.49353 19.5V17.5ZM12.4935 19.5C13.0458 19.5 13.4935 19.0523 13.4935 18.5C13.4935 17.9477 13.0458 17.5 12.4935 17.5V19.5ZM5.57158 22.2748L5.11061 23.1622L5.57158 22.2748ZM4.7187 21.4219L3.83129 21.8829L4.7187 21.4219ZM20.2684 21.4219L21.1558 21.8829L20.2684 21.4219ZM19.4155 22.2748L19.8765 23.1622L19.4155 22.2748ZM19.4155 2.72517L19.8765 1.83776L19.4155 2.72517ZM20.2684 3.57805L21.1558 3.11708L20.2684 3.57805ZM5.57158 2.72517L5.11061 1.83776L5.57158 2.72517ZM4.7187 3.57805L3.83129 3.11708L4.7187 3.57805ZM8.49353 15.5H16.4935V13.5H8.49353V15.5ZM8.49353 11.5H16.4935V9.5H8.49353V11.5ZM8.49353 7.5H16.4935V5.5H8.49353V7.5ZM8.49353 19.5H12.4935V17.5H8.49353V19.5ZM7.71353 3.5H17.2735V1.5H7.71353V3.5ZM19.4935 5.72V19.28H21.4935V5.72H19.4935ZM17.2735 21.5H7.71353V23.5H17.2735V21.5ZM5.49353 19.28V5.72H3.49353V19.28H5.49353ZM7.71353 21.5C7.12726 21.5 6.7487 21.4992 6.46075 21.4753C6.18478 21.4524 6.08277 21.4135 6.03256 21.3874L5.11061 23.1622C5.49387 23.3613 5.89334 23.435 6.29523 23.4684C6.68515 23.5008 7.16082 23.5 7.71353 23.5V21.5ZM3.49353 19.28C3.49353 19.8327 3.49273 20.3084 3.52511 20.6983C3.55848 21.1002 3.6322 21.4997 3.83129 21.8829L5.60612 20.961C5.58003 20.9108 5.54116 20.8088 5.51825 20.5328C5.49433 20.2448 5.49353 19.8663 5.49353 19.28H3.49353ZM6.03256 21.3874C5.84991 21.2925 5.70099 21.1436 5.60612 20.961L3.83129 21.8829C4.11592 22.4309 4.56268 22.8776 5.11061 23.1622L6.03256 21.3874ZM19.4935 19.28C19.4935 19.8663 19.4927 20.2448 19.4688 20.5328C19.4459 20.8088 19.407 20.9108 19.3809 20.961L21.1558 21.8829C21.3549 21.4997 21.4286 21.1002 21.462 20.6983C21.4943 20.3084 21.4935 19.8327 21.4935 19.28H19.4935ZM17.2735 23.5C17.8262 23.5 18.3019 23.5008 18.6918 23.4684C19.0937 23.435 19.4932 23.3613 19.8765 23.1622L18.9545 21.3874C18.9043 21.4135 18.8023 21.4524 18.5263 21.4753C18.2384 21.4992 17.8598 21.5 17.2735 21.5V23.5ZM19.3809 20.961C19.2861 21.1436 19.1371 21.2925 18.9545 21.3874L19.8765 23.1622C20.4244 22.8776 20.8711 22.4309 21.1558 21.8829L19.3809 20.961ZM17.2735 3.5C17.8598 3.5 18.2384 3.5008 18.5263 3.52472C18.8023 3.54763 18.9043 3.5865 18.9545 3.61259L19.8765 1.83776C19.4932 1.63867 19.0937 1.56495 18.6918 1.53158C18.3019 1.4992 17.8262 1.5 17.2735 1.5V3.5ZM21.4935 5.72C21.4935 5.16729 21.4943 4.69162 21.462 4.3017C21.4286 3.89982 21.3549 3.50034 21.1558 3.11708L19.3809 4.03903C19.407 4.08924 19.4459 4.19125 19.4688 4.46722C19.4927 4.75517 19.4935 5.13372 19.4935 5.72H21.4935ZM18.9545 3.61259C19.1371 3.70746 19.2861 3.85638 19.3809 4.03903L21.1558 3.11708C20.8711 2.56915 20.4244 2.12239 19.8765 1.83776L18.9545 3.61259ZM7.71353 1.5C7.16082 1.5 6.68515 1.4992 6.29523 1.53158C5.89335 1.56495 5.49387 1.63867 5.11061 1.83776L6.03256 3.61259C6.08277 3.5865 6.18478 3.54763 6.46075 3.52472C6.7487 3.5008 7.12725 3.5 7.71353 3.5V1.5ZM5.49353 5.72C5.49353 5.13372 5.49433 4.75517 5.51825 4.46722C5.54116 4.19125 5.58003 4.08924 5.60612 4.03903L3.83129 3.11708C3.6322 3.50034 3.55848 3.89981 3.52511 4.3017C3.49273 4.69162 3.49353 5.16729 3.49353 5.72H5.49353ZM5.11061 1.83776C4.56268 2.12239 4.11592 2.56915 3.83129 3.11708L5.60612 4.03903C5.70099 3.85638 5.84991 3.70746 6.03256 3.61259L5.11061 1.83776Z" fill="black"/>
</svg>
