<svg width="25" height="25" viewBox="0 0 25 25" fill="none" xmlns="http://www.w3.org/2000/svg">
<path d="M1.49365 10.8505L14.4937 23.8505M6.99365 16.3505L11.7865 11.5576C12.1771 11.167 12.8102 11.167 13.2008 11.5576L22.8848 21.2416M18.1184 6.4754H18.8684M18.1184 7.2254H18.8684M9.49365 23.8505H15.4937C18.2939 23.8505 19.694 23.8505 20.7636 23.3055C21.7044 22.8261 22.4693 22.0612 22.9487 21.1204C23.4937 20.0509 23.4937 18.6507 23.4937 15.8505V9.85046C23.4937 7.0502 23.4937 5.65007 22.9487 4.58051C22.4693 3.6397 21.7044 2.8748 20.7636 2.39543C19.694 1.85046 18.2939 1.85046 15.4937 1.85046L9.49365 1.85046C6.69339 1.85046 5.29326 1.85046 4.2237 2.39543C3.28289 2.8748 2.51799 3.6397 2.03862 4.58051C1.49365 5.65007 1.49365 7.0502 1.49365 9.85046L1.49365 15.8505C1.49365 18.6507 1.49365 20.0509 2.03862 21.1204C2.51799 22.0612 3.28289 22.8261 4.2237 23.3055C5.29326 23.8505 6.69339 23.8505 9.49365 23.8505ZM19.4937 6.85046C19.4937 7.40275 19.0459 7.85046 18.4937 7.85046C17.9414 7.85046 17.4937 7.40275 17.4937 6.85046C17.4937 6.29818 17.9414 5.85046 18.4937 5.85046C19.0459 5.85046 19.4937 6.29818 19.4937 6.85046Z" stroke="black" stroke-width="2" stroke-linecap="round"/>
</svg>
