<svg width="25" height="25" viewBox="0 0 25 25" fill="none" xmlns="http://www.w3.org/2000/svg">
<path d="M1.49365 10.8569L14.4937 23.8569M6.99365 16.3569L11.7865 11.564C12.1771 11.1735 12.8102 11.1735 13.2008 11.564L22.8848 21.2481M18.1184 6.48187H18.8684M18.1184 7.23187H18.8684M9.49365 23.8569H15.4937C18.2939 23.8569 19.694 23.8569 20.7636 23.312C21.7044 22.8326 22.4693 22.0677 22.9487 21.1269C23.4937 20.0573 23.4937 18.6572 23.4937 15.8569V9.85693C23.4937 7.05667 23.4937 5.65654 22.9487 4.58698C22.4693 3.64617 21.7044 2.88127 20.7636 2.4019C19.694 1.85693 18.2939 1.85693 15.4937 1.85693L9.49365 1.85693C6.69339 1.85693 5.29326 1.85693 4.2237 2.4019C3.28289 2.88127 2.51799 3.64617 2.03862 4.58698C1.49365 5.65654 1.49365 7.05667 1.49365 9.85693L1.49365 15.8569C1.49365 18.6572 1.49365 20.0573 2.03862 21.1269C2.51799 22.0677 3.28289 22.8326 4.2237 23.312C5.29326 23.8569 6.69339 23.8569 9.49365 23.8569ZM19.4937 6.85693C19.4937 7.40922 19.0459 7.85693 18.4937 7.85693C17.9414 7.85693 17.4937 7.40922 17.4937 6.85693C17.4937 6.30465 17.9414 5.85693 18.4937 5.85693C19.0459 5.85693 19.4937 6.30465 19.4937 6.85693Z" stroke="black" stroke-width="2" stroke-linecap="round"/>
</svg>
