<svg width="25" height="25" viewBox="0 0 25 25" fill="none" xmlns="http://www.w3.org/2000/svg">
<path d="M1.49353 10.1946L14.4935 23.1946M6.99353 15.6946L11.7864 10.9017C12.1769 10.5112 12.8101 10.5112 13.2006 10.9017L22.8847 20.5857M18.1183 5.81952H18.8683M18.1183 6.56952H18.8683M9.49353 23.1946H15.4935C18.2938 23.1946 19.6939 23.1946 20.7635 22.6496C21.7043 22.1702 22.4692 21.4053 22.9486 20.4645C23.4935 19.395 23.4935 17.9948 23.4935 15.1946V9.19458C23.4935 6.39432 23.4935 4.99419 22.9486 3.92463C22.4692 2.98382 21.7043 2.21891 20.7635 1.73955C19.6939 1.19458 18.2938 1.19458 15.4935 1.19458H9.49353C6.69327 1.19458 5.29314 1.19458 4.22358 1.73955C3.28277 2.21891 2.51786 2.98382 2.0385 3.92463C1.49353 4.99419 1.49353 6.39432 1.49353 9.19458V15.1946C1.49353 17.9948 1.49353 19.395 2.0385 20.4645C2.51786 21.4053 3.28277 22.1702 4.22358 22.6496C5.29314 23.1946 6.69327 23.1946 9.49353 23.1946ZM19.4935 6.19458C19.4935 6.74686 19.0458 7.19458 18.4935 7.19458C17.9412 7.19458 17.4935 6.74686 17.4935 6.19458C17.4935 5.6423 17.9412 5.19458 18.4935 5.19458C19.0458 5.19458 19.4935 5.6423 19.4935 6.19458Z" stroke="black" stroke-width="2" stroke-linecap="round"/>
</svg>
