<svg width="216" height="48" viewBox="0 0 216 48" fill="none" xmlns="http://www.w3.org/2000/svg">
<g filter="url(#filter0_d_376_3991)">
<rect x="173" y="1" width="38" height="38" rx="19" fill="url(#paint0_linear_376_3991)"/>
<path d="M192.163 28.4911C186.006 28.4911 181 23.5089 181 17.3789C181 11.2402 186.006 6.258 192.163 6.258C198.32 6.258 203.326 11.2402 203.326 17.3702C203.326 23.5002 198.32 28.4911 192.163 28.4911ZM201.573 18.8918C201.251 18.7875 198.625 18.0136 195.634 18.4832C196.881 21.8916 197.387 24.674 197.483 25.2479C199.628 23.8132 201.155 21.5351 201.573 18.8918ZM195.887 26.1261C195.747 25.2913 195.189 22.3872 193.855 18.9266C193.838 18.9353 193.811 18.944 193.794 18.944C188.413 20.8134 186.486 24.5262 186.311 24.874C187.925 26.1261 189.957 26.8738 192.163 26.8738C193.48 26.8825 194.745 26.613 195.887 26.1261ZM185.082 23.7349C185.3 23.3697 187.916 19.057 192.835 17.4658C192.957 17.4224 193.088 17.3876 193.21 17.3528C192.974 16.8137 192.713 16.2746 192.433 15.7442C187.672 17.1615 183.049 17.1007 182.631 17.092C182.631 17.1876 182.622 17.2832 182.622 17.3789C182.631 19.8222 183.555 22.0481 185.082 23.7349ZM182.831 15.4399C183.259 15.4486 187.183 15.466 191.649 14.2835C190.07 11.4837 188.361 9.13604 188.116 8.79693C185.439 10.049 183.451 12.501 182.831 15.4399ZM189.93 8.1535C190.192 8.5013 191.928 10.849 193.489 13.7096C196.881 12.4401 198.312 10.5272 198.486 10.2838C196.803 8.79693 194.588 7.89265 192.163 7.89265C191.396 7.89265 190.646 7.9883 189.93 8.1535ZM199.541 11.3793C199.341 11.6489 197.745 13.6922 194.221 15.1269C194.439 15.579 194.657 16.0399 194.858 16.5007C194.928 16.6659 194.997 16.8311 195.067 16.9876C198.242 16.5876 201.39 17.2311 201.704 17.2919C201.678 15.0573 200.876 12.9966 199.541 11.3793Z" fill="white"/>
</g>
<g filter="url(#filter1_d_376_3991)">
<rect x="117" y="1" width="38" height="38" rx="19" fill="url(#paint1_linear_376_3991)"/>
<path d="M132.667 17.225C132.667 15.3896 134.159 13.9014 136 13.9014C137.841 13.9014 139.334 15.3896 139.334 17.225C139.334 19.0604 137.841 20.5486 136 20.5486C134.159 20.5486 132.667 19.0604 132.667 17.225ZM130.865 17.225C130.865 20.0525 133.164 22.3445 136 22.3445C138.836 22.3445 141.135 20.0525 141.135 17.225C141.135 14.3975 138.836 12.1055 136 12.1055C133.164 12.1055 130.865 14.3975 130.865 17.225ZM140.138 11.9025C140.138 12.1392 140.208 12.3705 140.34 12.5673C140.472 12.7641 140.659 12.9175 140.878 13.0082C141.098 13.0988 141.339 13.1226 141.572 13.0765C141.805 13.0305 142.018 12.9166 142.186 12.7493C142.354 12.5821 142.469 12.369 142.515 12.1369C142.561 11.9048 142.538 11.6643 142.447 11.4456C142.356 11.227 142.203 11.0401 142.005 10.9085C141.808 10.777 141.576 10.7067 141.339 10.7066H141.338C141.02 10.7068 140.715 10.8328 140.49 11.057C140.265 11.2813 140.138 11.5854 140.138 11.9025ZM131.96 25.3403C130.985 25.2961 130.455 25.1342 130.103 24.9974C129.636 24.8162 129.303 24.6003 128.953 24.2516C128.602 23.9029 128.386 23.5711 128.205 23.1056C128.067 22.7547 127.905 22.2262 127.861 21.2542C127.812 20.2032 127.803 19.8876 127.803 17.2251C127.803 14.5626 127.813 14.2478 127.861 13.196C127.905 12.224 128.069 11.6965 128.205 11.3445C128.386 10.8791 128.603 10.5469 128.953 10.1978C129.302 9.84856 129.635 9.63241 130.103 9.45199C130.455 9.31513 130.985 9.15321 131.96 9.10903C133.014 9.06069 133.331 9.05104 136 9.05104C138.669 9.05104 138.986 9.06149 140.041 9.10903C141.016 9.15329 141.545 9.3164 141.898 9.45199C142.365 9.63241 142.698 9.84904 143.048 10.1978C143.399 10.5465 143.615 10.8791 143.796 11.3445C143.934 11.6955 144.096 12.224 144.14 13.196C144.189 14.2478 144.199 14.5626 144.199 17.2251C144.199 19.8876 144.189 20.2024 144.14 21.2542C144.096 22.2262 143.933 22.7545 143.796 23.1056C143.615 23.5711 143.398 23.9032 143.048 24.2516C142.699 24.6 142.365 24.8162 141.898 24.9974C141.546 25.1342 141.016 25.2962 140.041 25.3403C138.987 25.3887 138.67 25.3983 136 25.3983C133.33 25.3983 133.014 25.3887 131.96 25.3403ZM131.877 7.31538C130.813 7.36372 130.085 7.53201 129.45 7.77847C128.792 8.03298 128.235 8.37444 127.678 8.92845C127.122 9.48246 126.78 10.0386 126.525 10.6946C126.278 11.3283 126.109 12.0532 126.061 13.1146C126.011 14.1776 126 14.5175 126 17.225C126 19.9325 126.011 20.2724 126.061 21.3354C126.109 22.3969 126.278 23.1217 126.525 23.7554C126.78 24.411 127.122 24.9678 127.678 25.5216C128.235 26.0753 128.792 26.4163 129.45 26.6715C130.086 26.918 130.813 27.0863 131.877 27.1346C132.944 27.183 133.284 27.195 136 27.195C138.716 27.195 139.057 27.1838 140.123 27.1346C141.187 27.0863 141.914 26.918 142.55 26.6715C143.208 26.4163 143.765 26.0756 144.322 25.5216C144.878 24.9675 145.219 24.411 145.475 23.7554C145.722 23.1217 145.892 22.3968 145.939 21.3354C145.988 20.2716 145.999 19.9325 145.999 17.225C145.999 14.5175 145.988 14.1776 145.939 13.1146C145.891 12.0531 145.722 11.3279 145.475 10.6946C145.219 10.039 144.877 9.48334 144.322 8.92845C143.766 8.37356 143.208 8.03298 142.551 7.77847C141.914 7.53201 141.187 7.36292 140.124 7.31538C139.057 7.26705 138.716 7.255 136.001 7.255C133.285 7.255 132.944 7.26625 131.877 7.31538Z" fill="white"/>
</g>
<g filter="url(#filter2_d_376_3991)">
<rect x="61" y="1" width="38" height="38" rx="19" fill="url(#paint2_linear_376_3991)"/>
<path d="M88.8068 13.4795C88.8068 13.6705 88.8068 13.8616 88.8068 14.0253C88.8068 19.675 84.4815 26.198 76.5974 26.198C74.161 26.198 71.9163 25.4884 70 24.2875C70.3285 24.3148 70.6844 24.3421 71.0129 24.3421C73.0113 24.3421 74.8728 23.6598 76.351 22.5135C74.4622 22.4862 72.8744 21.2307 72.3543 19.5385C72.628 19.5931 72.8744 19.6204 73.1755 19.6204C73.5588 19.6204 73.942 19.5658 74.2979 19.4566C72.3269 19.0745 70.8486 17.3551 70.8486 15.2808C70.8486 15.2535 70.8486 15.2535 70.8486 15.2262C71.4235 15.5537 72.0805 15.7448 72.7923 15.7721C71.6425 15.0079 70.876 13.6978 70.876 12.1967C70.876 11.4052 71.095 10.6683 71.4509 10.0405C73.5588 12.6334 76.7343 14.3255 80.2931 14.5166C80.2109 14.2164 80.1836 13.8616 80.1836 13.534C80.1836 11.1595 82.0998 9.24902 84.4815 9.24902C85.7134 9.24902 86.8357 9.76759 87.6023 10.5864C88.5878 10.3953 89.4911 10.0405 90.3398 9.54925C90.0113 10.5591 89.3269 11.3779 88.4509 11.9237C89.3269 11.8146 90.1481 11.5962 90.9147 11.2414C90.3671 12.1148 89.6554 12.879 88.8068 13.4795Z" fill="white"/>
</g>
<g filter="url(#filter3_d_376_3991)">
<rect x="5" y="1" width="38" height="38" rx="19" fill="url(#paint3_linear_376_3991)"/>
<path d="M25.7416 27.1949V18.0993H28.8038L29.2623 14.5546H25.7416V12.2914C25.7416 11.2652 26.0275 10.5657 27.5037 10.5657L29.3864 10.5649V7.39453C29.0606 7.35149 27.9431 7.255 26.643 7.255C23.9285 7.255 22.0701 8.90685 22.0701 11.9405V14.5547H19V18.0994H22.07V27.195L25.7416 27.1949Z" fill="white"/>
</g>
<defs>
<filter id="filter0_d_376_3991" x="168" y="0" width="48" height="48" filterUnits="userSpaceOnUse" color-interpolation-filters="sRGB">
<feFlood flood-opacity="0" result="BackgroundImageFix"/>
<feColorMatrix in="SourceAlpha" type="matrix" values="0 0 0 0 0 0 0 0 0 0 0 0 0 0 0 0 0 0 127 0" result="hardAlpha"/>
<feOffset dy="4"/>
<feGaussianBlur stdDeviation="2.5"/>
<feColorMatrix type="matrix" values="0 0 0 0 0 0 0 0 0 0 0 0 0 0 0 0 0 0 0.16 0"/>
<feBlend mode="normal" in2="BackgroundImageFix" result="effect1_dropShadow_376_3991"/>
<feBlend mode="normal" in="SourceGraphic" in2="effect1_dropShadow_376_3991" result="shape"/>
</filter>
<filter id="filter1_d_376_3991" x="112" y="0" width="48" height="48" filterUnits="userSpaceOnUse" color-interpolation-filters="sRGB">
<feFlood flood-opacity="0" result="BackgroundImageFix"/>
<feColorMatrix in="SourceAlpha" type="matrix" values="0 0 0 0 0 0 0 0 0 0 0 0 0 0 0 0 0 0 127 0" result="hardAlpha"/>
<feOffset dy="4"/>
<feGaussianBlur stdDeviation="2.5"/>
<feColorMatrix type="matrix" values="0 0 0 0 0 0 0 0 0 0 0 0 0 0 0 0 0 0 0.16 0"/>
<feBlend mode="normal" in2="BackgroundImageFix" result="effect1_dropShadow_376_3991"/>
<feBlend mode="normal" in="SourceGraphic" in2="effect1_dropShadow_376_3991" result="shape"/>
</filter>
<filter id="filter2_d_376_3991" x="56" y="0" width="48" height="48" filterUnits="userSpaceOnUse" color-interpolation-filters="sRGB">
<feFlood flood-opacity="0" result="BackgroundImageFix"/>
<feColorMatrix in="SourceAlpha" type="matrix" values="0 0 0 0 0 0 0 0 0 0 0 0 0 0 0 0 0 0 127 0" result="hardAlpha"/>
<feOffset dy="4"/>
<feGaussianBlur stdDeviation="2.5"/>
<feColorMatrix type="matrix" values="0 0 0 0 0 0 0 0 0 0 0 0 0 0 0 0 0 0 0.16 0"/>
<feBlend mode="normal" in2="BackgroundImageFix" result="effect1_dropShadow_376_3991"/>
<feBlend mode="normal" in="SourceGraphic" in2="effect1_dropShadow_376_3991" result="shape"/>
</filter>
<filter id="filter3_d_376_3991" x="0" y="0" width="48" height="48" filterUnits="userSpaceOnUse" color-interpolation-filters="sRGB">
<feFlood flood-opacity="0" result="BackgroundImageFix"/>
<feColorMatrix in="SourceAlpha" type="matrix" values="0 0 0 0 0 0 0 0 0 0 0 0 0 0 0 0 0 0 127 0" result="hardAlpha"/>
<feOffset dy="4"/>
<feGaussianBlur stdDeviation="2.5"/>
<feColorMatrix type="matrix" values="0 0 0 0 0 0 0 0 0 0 0 0 0 0 0 0 0 0 0.16 0"/>
<feBlend mode="normal" in2="BackgroundImageFix" result="effect1_dropShadow_376_3991"/>
<feBlend mode="normal" in="SourceGraphic" in2="effect1_dropShadow_376_3991" result="shape"/>
</filter>
<linearGradient id="paint0_linear_376_3991" x1="151.424" y1="-62.2784" x2="23.168" y2="-16.7583" gradientUnits="userSpaceOnUse">
<stop stop-color="#668FCC" stop-opacity="0.94"/>
<stop offset="1" stop-color="#EC74E7"/>
</linearGradient>
<linearGradient id="paint1_linear_376_3991" x1="95.4236" y1="-62.2784" x2="-32.832" y2="-16.7583" gradientUnits="userSpaceOnUse">
<stop stop-color="#668FCC" stop-opacity="0.94"/>
<stop offset="1" stop-color="#EC74E7"/>
</linearGradient>
<linearGradient id="paint2_linear_376_3991" x1="39.4236" y1="-62.2784" x2="-88.832" y2="-16.7583" gradientUnits="userSpaceOnUse">
<stop stop-color="#668FCC" stop-opacity="0.94"/>
<stop offset="1" stop-color="#EC74E7"/>
</linearGradient>
<linearGradient id="paint3_linear_376_3991" x1="-16.5764" y1="-62.2784" x2="-144.832" y2="-16.7583" gradientUnits="userSpaceOnUse">
<stop stop-color="#668FCC" stop-opacity="0.94"/>
<stop offset="1" stop-color="#EC74E7"/>
</linearGradient>
</defs>
</svg>
