<svg width="1363" height="292" viewBox="0 0 1363 292" fill="none" xmlns="http://www.w3.org/2000/svg">
<path d="M736.333 127.15L765.667 104.15L846.333 167.4L897.667 127.15L941.667 161.65V57H736.333V127.15ZM721.667 34H956.333C960.223 34 963.954 35.2116 966.704 37.3683C969.455 39.5249 971 42.45 971 45.5V229.5C971 232.55 969.455 235.475 966.704 237.632C963.954 239.788 960.223 241 956.333 241H721.667C717.777 241 714.046 239.788 711.296 237.632C708.545 235.475 707 232.55 707 229.5V45.5C707 42.45 708.545 39.5249 711.296 37.3683C714.046 35.2116 717.777 34 721.667 34ZM890.333 114.5C884.499 114.5 878.903 112.683 874.777 109.448C870.651 106.213 868.333 101.825 868.333 97.25C868.333 92.675 870.651 88.2874 874.777 85.0524C878.903 81.8174 884.499 80 890.333 80C896.168 80 901.764 81.8174 905.89 85.0524C910.015 88.2874 912.333 92.675 912.333 97.25C912.333 101.825 910.015 106.213 905.89 109.448C901.764 112.683 896.168 114.5 890.333 114.5Z" fill="#404560" fill-opacity="0.92"/>
<path d="M407.222 127.15L437.444 104.15L520.556 167.4L573.444 127.15L618.778 161.65V57H407.222V127.15ZM392.111 34H633.889C637.897 34 641.74 35.2116 644.574 37.3683C647.408 39.5249 649 42.45 649 45.5V229.5C649 232.55 647.408 235.475 644.574 237.632C641.74 239.788 637.897 241 633.889 241H392.111C388.103 241 384.26 239.788 381.426 237.632C378.592 235.475 377 232.55 377 229.5V45.5C377 42.45 378.592 39.5249 381.426 37.3683C384.26 35.2116 388.103 34 392.111 34ZM565.889 114.5C559.877 114.5 554.112 112.683 549.861 109.448C545.61 106.213 543.222 101.825 543.222 97.25C543.222 92.675 545.61 88.2874 549.861 85.0524C554.112 81.8174 559.877 80 565.889 80C571.9 80 577.666 81.8174 581.917 85.0524C586.167 88.2874 588.556 92.675 588.556 97.25C588.556 101.825 586.167 106.213 581.917 109.448C577.666 112.683 571.9 114.5 565.889 114.5Z" fill="#404560" fill-opacity="0.92"/>
<path d="M75.8333 127.188L106.167 104.271L189.583 167.292L242.667 127.188L288.167 161.562V57.2917H75.8333V127.188ZM60.6667 34.375H303.333C307.356 34.375 311.214 35.5822 314.058 37.7311C316.902 39.8799 318.5 42.7944 318.5 45.8333V229.167C318.5 232.206 316.902 235.12 314.058 237.269C311.214 239.418 307.356 240.625 303.333 240.625H60.6667C56.6442 240.625 52.7865 239.418 49.9422 237.269C47.0979 235.12 45.5 232.206 45.5 229.167V45.8333C45.5 42.7944 47.0979 39.8799 49.9422 37.7311C52.7865 35.5822 56.6442 34.375 60.6667 34.375ZM235.083 114.583C229.05 114.583 223.263 112.773 218.997 109.549C214.73 106.326 212.333 101.954 212.333 97.3958C212.333 92.8374 214.73 88.4657 218.997 85.2424C223.263 82.0191 229.05 80.2083 235.083 80.2083C241.117 80.2083 246.904 82.0191 251.17 85.2424C255.436 88.4657 257.833 92.8374 257.833 97.3958C257.833 101.954 255.436 106.326 251.17 109.549C246.904 112.773 241.117 114.583 235.083 114.583Z" fill="#404560" fill-opacity="0.92"/>
</svg>
