<svg width="32" height="33" viewBox="0 0 32 33" fill="none" xmlns="http://www.w3.org/2000/svg">
<path d="M19.2223 15.0825C21.7711 14.7444 23.7435 12.4299 23.7435 9.62498C23.7435 6.8201 21.7711 4.50561 19.2223 4.16748C20.4284 5.62188 21.1602 7.53245 21.1602 9.62498C21.1602 11.7175 20.4284 13.6281 19.2223 15.0825Z" fill="#535763"/>
<path d="M26.3269 27.5C26.3269 28.2594 26.9052 28.875 27.6185 28.875C28.3319 28.875 28.9102 28.2594 28.9102 27.5V24.75C28.9102 21.0924 26.227 18.1019 22.8417 17.8873C24.2006 19.1685 25.2403 20.8249 25.8174 22.704C26.1416 23.307 26.3269 24.0055 26.3269 24.75V27.5Z" fill="#535763"/>
<path fill-rule="evenodd" clip-rule="evenodd" d="M9.53524 20.625C7.39513 20.625 5.66024 22.4718 5.66024 24.75V27.5C5.66024 28.2594 5.08194 28.875 4.36857 28.875C3.6552 28.875 3.0769 28.2594 3.0769 27.5V24.75C3.0769 20.953 5.9684 17.875 9.53524 17.875H17.2852C20.8521 17.875 23.7436 20.953 23.7436 24.75V27.5C23.7436 28.2594 23.1653 28.875 22.4519 28.875C21.7385 28.875 21.1602 28.2594 21.1602 27.5V24.75C21.1602 22.4718 19.4253 20.625 17.2852 20.625H9.53524Z" fill="#535763"/>
<path fill-rule="evenodd" clip-rule="evenodd" d="M13.4102 6.875C11.9835 6.875 10.8269 8.10622 10.8269 9.625C10.8269 11.1438 11.9835 12.375 13.4102 12.375C14.8369 12.375 15.9935 11.1438 15.9935 9.625C15.9935 8.10622 14.8369 6.875 13.4102 6.875ZM8.24353 9.625C8.24353 6.58743 10.5567 4.125 13.4102 4.125C16.2637 4.125 18.5769 6.58743 18.5769 9.625C18.5769 12.6626 16.2637 15.125 13.4102 15.125C10.5567 15.125 8.24353 12.6626 8.24353 9.625Z" fill="#535763"/>
</svg>
