<svg width="32" height="33" viewBox="0 0 32 33" fill="none" xmlns="http://www.w3.org/2000/svg">
<path d="M19.2227 15.0825C21.7715 14.7444 23.7439 12.4299 23.7439 9.62498C23.7439 6.8201 21.7715 4.50561 19.2227 4.16748C20.4287 5.62188 21.1606 7.53245 21.1606 9.62498C21.1606 11.7175 20.4287 13.6281 19.2227 15.0825Z" fill="#535763"/>
<path d="M26.327 27.5001C26.327 28.2595 26.9053 28.8751 27.6187 28.8751C28.332 28.8751 28.9103 28.2595 28.9103 27.5001V24.7501C28.9103 21.0925 26.2271 18.102 22.8418 17.8875C24.2008 19.1686 25.2404 20.825 25.8175 22.7041C26.1417 23.3071 26.327 24.0056 26.327 24.7501V27.5001Z" fill="#535763"/>
<path fill-rule="evenodd" clip-rule="evenodd" d="M9.53548 20.6249C7.39538 20.6249 5.66048 22.4717 5.66048 24.7499L5.66048 27.4999C5.66048 28.2593 5.08218 28.8749 4.36882 28.8749C3.65545 28.8749 3.07715 28.2593 3.07715 27.4999L3.07715 24.7499C3.07715 20.9529 5.96864 17.8749 9.53548 17.8749H17.2855C20.8523 17.8749 23.7438 20.9529 23.7438 24.7499V27.4999C23.7438 28.2593 23.1655 28.8749 22.4521 28.8749C21.7388 28.8749 21.1605 28.2593 21.1605 27.4999V24.7499C21.1605 22.4717 19.4256 20.6249 17.2855 20.6249H9.53548Z" fill="#535763"/>
<path fill-rule="evenodd" clip-rule="evenodd" d="M13.4103 6.875C11.9836 6.875 10.827 8.10622 10.827 9.625C10.827 11.1438 11.9836 12.375 13.4103 12.375C14.8371 12.375 15.9937 11.1438 15.9937 9.625C15.9937 8.10622 14.8371 6.875 13.4103 6.875ZM8.24365 9.625C8.24365 6.58743 10.5568 4.125 13.4103 4.125C16.2638 4.125 18.577 6.58743 18.577 9.625C18.577 12.6626 16.2638 15.125 13.4103 15.125C10.5568 15.125 8.24365 12.6626 8.24365 9.625Z" fill="#535763"/>
</svg>
