<svg width="32" height="33" viewBox="0 0 32 33" fill="none" xmlns="http://www.w3.org/2000/svg">
<path d="M19.2224 15.0825C21.7713 14.7444 23.7437 12.4299 23.7437 9.62498C23.7437 6.8201 21.7713 4.50561 19.2224 4.16748C20.4285 5.62188 21.1603 7.53245 21.1603 9.62498C21.1603 11.7175 20.4285 13.6281 19.2224 15.0825Z" fill="#535763"/>
<path d="M26.327 27.5C26.327 28.2594 26.9053 28.875 27.6187 28.875C28.332 28.875 28.9103 28.2594 28.9103 27.5V24.75C28.9103 21.0924 26.2271 18.1019 22.8418 17.8873C24.2008 19.1685 25.2404 20.8249 25.8175 22.704C26.1417 23.307 26.327 24.0055 26.327 24.75V27.5Z" fill="#535763"/>
<path fill-rule="evenodd" clip-rule="evenodd" d="M9.53524 20.625C7.39513 20.625 5.66024 22.4718 5.66024 24.75L5.66024 27.5C5.66024 28.2594 5.08194 28.875 4.36857 28.875C3.6552 28.875 3.0769 28.2594 3.0769 27.5L3.0769 24.75C3.0769 20.953 5.9684 17.875 9.53524 17.875H17.2852C20.8521 17.875 23.7436 20.953 23.7436 24.75V27.5C23.7436 28.2594 23.1653 28.875 22.4519 28.875C21.7385 28.875 21.1602 28.2594 21.1602 27.5V24.75C21.1602 22.4718 19.4253 20.625 17.2852 20.625H9.53524Z" fill="#535763"/>
<path fill-rule="evenodd" clip-rule="evenodd" d="M13.4103 6.875C11.9836 6.875 10.827 8.10622 10.827 9.625C10.827 11.1438 11.9836 12.375 13.4103 12.375C14.8371 12.375 15.9937 11.1438 15.9937 9.625C15.9937 8.10622 14.8371 6.875 13.4103 6.875ZM8.24365 9.625C8.24365 6.58743 10.5568 4.125 13.4103 4.125C16.2638 4.125 18.577 6.58743 18.577 9.625C18.577 12.6626 16.2638 15.125 13.4103 15.125C10.5568 15.125 8.24365 12.6626 8.24365 9.625Z" fill="#535763"/>
</svg>
