<svg width="320" height="183" viewBox="0 0 320 183" fill="none" xmlns="http://www.w3.org/2000/svg">
<path d="M275.297 124.442C291.734 114.941 310.993 128.4 318.568 136.318V182.621H1.94392V1.45581C17.8508 6.89054 28.0767 51.5761 30.6332 79.9575C32.7183 103.105 32.811 119.611 43.889 124.442C55.0263 129.298 68.2309 113.844 79.4037 92.9103C88.3419 76.1633 101.686 85.9324 107.241 92.9103C117.088 105.055 133.309 113.29 146.337 100.891C162.623 85.3921 171.618 89.8204 192.164 100.891C212.711 111.962 210.628 119.007 227.766 136.318C244.903 153.628 254.751 136.318 275.297 124.442Z" fill="url(#paint0_linear_402_108)"/>
<path d="M318.568 136.318C310.993 128.4 291.734 114.941 275.297 124.442C254.751 136.318 244.903 153.628 227.766 136.318C210.628 119.007 212.711 111.962 192.164 100.891C171.618 89.8205 162.623 85.3922 146.337 100.891C133.309 113.29 117.088 105.055 107.241 92.9103C101.686 85.9324 88.3419 76.1633 79.4037 92.9103C68.2309 113.844 55.0263 129.298 43.889 124.442C32.811 119.611 32.7183 103.105 30.6332 79.9575C28.0767 51.5761 17.8509 6.89054 1.94391 1.45581" stroke="#2CD9FF" stroke-width="3"/>
<path d="M44.8821 104.792C28.5713 95.2985 9.46058 108.748 1.94408 116.659V182.44H318.191V26.7775C302.406 32.2082 288.997 30.7999 286.461 59.1605C284.392 82.2915 284.3 98.7848 273.307 103.612C262.255 108.465 255.831 80.0789 244.744 59.1605C235.875 42.4258 220.937 64.202 215.425 71.1748C205.653 83.3102 183.44 56.8327 173.813 36.0193C160.068 6.30028 141.991 3.58208 128.338 36.0193C114.686 68.4566 101.144 41.8626 84.1383 59.1605C67.1323 76.4584 65.2706 116.659 44.8821 104.792Z" fill="url(#paint1_linear_402_108)"/>
<path d="M1.94408 116.793C9.46058 108.871 28.5713 95.4042 44.8821 104.91C65.2706 116.793 67.1323 76.54 84.1383 59.2199C101.144 41.8999 114.686 68.528 128.338 36.0492C141.991 3.57041 160.067 6.29209 173.813 36.0492C183.44 56.8891 205.653 83.4006 215.425 71.2497C220.937 64.2679 235.875 42.4638 244.744 59.2199C255.831 80.1651 262.255 108.588 273.307 103.728C284.3 98.895 284.392 82.3805 286.461 59.2199C288.997 30.8231 302.406 32.2332 318.191 26.7955" stroke="#0075FF" stroke-width="3"/>
<defs>
<linearGradient id="paint0_linear_402_108" x1="160.256" y1="1.45581" x2="160.256" y2="182.621" gradientUnits="userSpaceOnUse">
<stop stop-color="#2CD9FF" stop-opacity="0.36"/>
<stop offset="1" stop-color="#2CD9FF" stop-opacity="0"/>
</linearGradient>
<linearGradient id="paint1_linear_402_108" x1="160.068" y1="12.6996" x2="160.068" y2="182.44" gradientUnits="userSpaceOnUse">
<stop stop-color="#0075FF"/>
<stop offset="1" stop-color="#0075FF" stop-opacity="0"/>
</linearGradient>
</defs>
</svg>
