<svg width="1292" height="1091" viewBox="0 0 1292 1091" fill="none" xmlns="http://www.w3.org/2000/svg">
<g opacity="0.8">
<rect width="8" height="241" rx="4" transform="matrix(-0.819152 0.573576 0.573576 0.819152 390.553 117)" fill="url(#paint0_linear_372_28)"/>
<rect width="6" height="181" rx="3" transform="matrix(-0.819152 0.573576 0.573576 0.819152 722.915 113)" fill="#394FC4"/>
<path d="M451.046 98.2873C446.295 91.5012 436.913 89.872 430.127 94.6237C423.363 99.3597 421.67 108.691 426.375 115.477L547.368 290L638.673 418.709C643.445 425.436 652.792 427.022 659.548 422.291C666.334 417.539 668.021 408.16 663.27 401.374L451.046 98.2873Z" fill="url(#paint1_linear_372_28)"/>
<rect width="23" height="300" rx="11.25" transform="matrix(-0.819152 0.573576 0.573576 0.819152 481.841 0)" fill="#1B2D88"/>
<rect opacity="0.169044" width="6.85" height="75" rx="3.425" transform="matrix(-0.809017 0.587785 0.587785 0.809017 139.542 281.713)" fill="url(#paint2_linear_372_28)"/>
<rect width="4.84701" height="241" rx="2.42351" transform="matrix(-0.809017 0.587785 0.587785 0.809017 41.9213 476)" fill="url(#paint3_linear_372_28)"/>
<rect opacity="0.143965" width="12" height="241" rx="6" transform="matrix(-0.809017 0.587785 0.587785 0.809017 9.70819 476)" fill="url(#paint4_linear_372_28)"/>
</g>
<defs>
<linearGradient id="paint0_linear_372_28" x1="-4.54239" y1="-401.319" x2="-34.9406" y2="-400.96" gradientUnits="userSpaceOnUse">
<stop stop-color="#668FCC" stop-opacity="0.94"/>
<stop offset="1" stop-color="#EC74E7"/>
</linearGradient>
<linearGradient id="paint1_linear_372_28" x1="74.8361" y1="-469.743" x2="173.317" y2="-534.732" gradientUnits="userSpaceOnUse">
<stop stop-color="#668FCC" stop-opacity="0.94"/>
<stop offset="1" stop-color="#EC74E7"/>
</linearGradient>
<linearGradient id="paint2_linear_372_28" x1="-3.88942" y1="-124.892" x2="-29.8942" y2="-124.049" gradientUnits="userSpaceOnUse">
<stop stop-color="#668FCC" stop-opacity="0.94"/>
<stop offset="1" stop-color="#EC74E7"/>
</linearGradient>
<linearGradient id="paint3_linear_372_28" x1="-2.75213" y1="-401.319" x2="-21.1713" y2="-401.187" gradientUnits="userSpaceOnUse">
<stop stop-color="#668FCC" stop-opacity="0.94"/>
<stop offset="1" stop-color="#EC74E7"/>
</linearGradient>
<linearGradient id="paint4_linear_372_28" x1="-6.81358" y1="-401.319" x2="-52.403" y2="-400.513" gradientUnits="userSpaceOnUse">
<stop stop-color="#668FCC" stop-opacity="0.94"/>
<stop offset="1" stop-color="#EC74E7"/>
</linearGradient>
</defs>
</svg>
