<svg width="862" height="924" viewBox="0 0 862 924" fill="none" xmlns="http://www.w3.org/2000/svg">
<g opacity="0.8">
<path d="M300.482 82.4535C297.55 77.1384 291.495 76.0987 286.958 80.1313C282.435 84.1517 281.126 91.6992 284.029 97.0155L365.174 245.588L426.513 355.348C429.461 360.623 435.494 361.637 440.016 357.617C444.556 353.582 445.858 345.999 442.924 340.68L300.482 82.4535Z" fill="url(#paint0_linear_375_3735)"/>
<rect width="5.84928" height="190.931" rx="2.92464" transform="matrix(-0.747433 0.664337 0.483006 0.875617 260.556 99.082)" fill="url(#paint1_linear_375_3735)"/>
<rect width="4.38696" height="143.396" rx="2.19348" transform="matrix(-0.747433 0.664337 0.483006 0.875617 482.289 95.6946)" fill="#394FC4"/>
<rect width="16.8167" height="237.673" rx="8.40833" transform="matrix(-0.747433 0.664337 0.483006 0.875617 321.458 0)" fill="#1B2D88"/>
<rect opacity="0.169044" width="5.02943" height="59.2055" rx="2.51472" transform="matrix(-0.735105 0.677953 0.496751 0.867893 93.0945 238.571)" fill="url(#paint2_linear_375_3735)"/>
<rect width="3.55879" height="190.247" rx="1.7794" transform="matrix(-0.735105 0.677953 0.496751 0.867893 27.9675 403.103)" fill="url(#paint3_linear_375_3735)"/>
<rect opacity="0.143965" width="8.81068" height="190.247" rx="4.40534" transform="matrix(-0.735105 0.677953 0.496751 0.867893 6.47681 403.103)" fill="url(#paint4_linear_375_3735)"/>
</g>
<defs>
<linearGradient id="paint0_linear_375_3735" x1="49.9265" y1="-397.805" x2="124.173" y2="-436.403" gradientUnits="userSpaceOnUse">
<stop stop-color="#668FCC" stop-opacity="0.94"/>
<stop offset="1" stop-color="#EC74E7"/>
</linearGradient>
<linearGradient id="paint1_linear_375_3735" x1="-3.32121" y1="-317.942" x2="-25.5476" y2="-317.701" gradientUnits="userSpaceOnUse">
<stop stop-color="#668FCC" stop-opacity="0.94"/>
<stop offset="1" stop-color="#EC74E7"/>
</linearGradient>
<linearGradient id="paint2_linear_375_3735" x1="-2.8557" y1="-98.5902" x2="-21.9517" y2="-98.0145" gradientUnits="userSpaceOnUse">
<stop stop-color="#668FCC" stop-opacity="0.94"/>
<stop offset="1" stop-color="#EC74E7"/>
</linearGradient>
<linearGradient id="paint3_linear_375_3735" x1="-2.02068" y1="-316.803" x2="-15.5446" y2="-316.713" gradientUnits="userSpaceOnUse">
<stop stop-color="#668FCC" stop-opacity="0.94"/>
<stop offset="1" stop-color="#EC74E7"/>
</linearGradient>
<linearGradient id="paint4_linear_375_3735" x1="-5.00269" y1="-316.803" x2="-38.4769" y2="-316.253" gradientUnits="userSpaceOnUse">
<stop stop-color="#668FCC" stop-opacity="0.94"/>
<stop offset="1" stop-color="#EC74E7"/>
</linearGradient>
</defs>
</svg>
