<svg width="1292" height="1078" viewBox="0 0 1292 1078" fill="none" xmlns="http://www.w3.org/2000/svg">
<g opacity="0.8">
<rect width="8" height="241" rx="4" transform="matrix(-0.819152 0.573576 0.573576 0.819152 205.553 95)" fill="url(#paint0_linear_375_3509)"/>
<rect width="6" height="181" rx="3" transform="matrix(-0.819152 0.573576 0.573576 0.819152 476.915 100)" fill="#394FC4"/>
<path d="M305.046 85.2873C300.295 78.5012 290.913 76.872 284.127 81.6237C277.363 86.3597 275.67 95.6915 280.375 102.477L401.368 277L492.673 405.709C497.445 412.436 506.792 414.022 513.548 409.291C520.334 404.539 522.021 395.16 517.27 388.374L305.046 85.2873Z" fill="url(#paint1_linear_375_3509)"/>
<rect width="23" height="300" rx="11.25" transform="matrix(-0.819152 0.573576 0.573576 0.819152 343.841 0)" fill="#1B2D88"/>
<rect opacity="0.169044" width="6.85" height="75" rx="3.425" transform="matrix(-0.809017 0.587785 0.587785 0.809017 139.542 268.713)" fill="url(#paint2_linear_375_3509)"/>
<rect width="4.84701" height="241" rx="2.42351" transform="matrix(-0.809017 0.587785 0.587785 0.809017 41.9213 463)" fill="url(#paint3_linear_375_3509)"/>
<rect opacity="0.143965" width="12" height="241" rx="6" transform="matrix(-0.809017 0.587785 0.587785 0.809017 9.70825 463)" fill="url(#paint4_linear_375_3509)"/>
</g>
<defs>
<linearGradient id="paint0_linear_375_3509" x1="-4.54239" y1="-401.319" x2="-34.9406" y2="-400.96" gradientUnits="userSpaceOnUse">
<stop stop-color="#668FCC" stop-opacity="0.94"/>
<stop offset="1" stop-color="#EC74E7"/>
</linearGradient>
<linearGradient id="paint1_linear_375_3509" x1="-71.1639" y1="-482.743" x2="27.3168" y2="-547.732" gradientUnits="userSpaceOnUse">
<stop stop-color="#668FCC" stop-opacity="0.94"/>
<stop offset="1" stop-color="#EC74E7"/>
</linearGradient>
<linearGradient id="paint2_linear_375_3509" x1="-3.88942" y1="-124.892" x2="-29.8942" y2="-124.049" gradientUnits="userSpaceOnUse">
<stop stop-color="#668FCC" stop-opacity="0.94"/>
<stop offset="1" stop-color="#EC74E7"/>
</linearGradient>
<linearGradient id="paint3_linear_375_3509" x1="-2.75213" y1="-401.319" x2="-21.1713" y2="-401.187" gradientUnits="userSpaceOnUse">
<stop stop-color="#668FCC" stop-opacity="0.94"/>
<stop offset="1" stop-color="#EC74E7"/>
</linearGradient>
<linearGradient id="paint4_linear_375_3509" x1="-6.81358" y1="-401.319" x2="-52.403" y2="-400.513" gradientUnits="userSpaceOnUse">
<stop stop-color="#668FCC" stop-opacity="0.94"/>
<stop offset="1" stop-color="#EC74E7"/>
</linearGradient>
</defs>
</svg>
